<mxfile host="app.diagrams.net" modified="2023-06-15T03:08:18.600Z" agent="Mozilla/5.0 (Macintosh; Intel Mac OS X 10_15_7) AppleWebKit/537.36 (KHTML, like Gecko) Chrome/114.0.0.0 Safari/537.36" version="21.4.0" etag="bJ-ej3IkewsOiMlmlpdX" type="github">
  <diagram name="Page-1" id="Pi5knQMW98fCYsYitld3">
    <mxGraphModel>
      <root>
        <mxCell id="0" />
        <mxCell id="1" parent="0" />
      </root>
    </mxGraphModel>
  </diagram>
</mxfile>
